<?xml version="1.0" standalone="no"?>
<!DOCTYPE svg PUBLIC "-//W3C//DTD SVG 20010904//EN"
 "http://www.w3.org/TR/2001/REC-SVG-20010904/DTD/svg10.dtd">
<svg version="1.0" xmlns="http://www.w3.org/2000/svg"
 width="400.000000pt" height="400.000000pt" viewBox="0 0 400.000000 400.000000"
 preserveAspectRatio="xMidYMid meet">

<g transform="translate(0.000000,400.000000) scale(0.100000,-0.100000)"
fill="#000000" stroke="none">
<path d="M1845 3929 c-845 -79 -1534 -696 -1711 -1532 -32 -150 -43 -425 -25
-588 91 -799 652 -1451 1424 -1654 319 -84 693 -80 1010 11 438 126 820 405
1075 785 148 220 259 506 304 784 19 116 15 444 -6 570 -70 417 -240 755 -525
1049 -221 226 -461 378 -756 479 -259 88 -525 121 -790 96z m341 -30 c357 -35
683 -159 964 -368 97 -73 265 -235 343 -331 456 -565 548 -1356 233 -2005
-330 -679 -1035 -1103 -1781 -1072 -77 4 -183 13 -235 22 -610 100 -1133 496
-1400 1058 -114 240 -162 431 -180 716 -25 383 71 756 283 1096 293 473 809
806 1352 874 183 23 270 25 421 10z"/>
<path d="M2257 3632 c-23 -26 -22 -94 1 -115 41 -37 92 -5 92 58 0 64 -56 98
-93 57z"/>
<path d="M2042 3605 c-65 -46 -33 -193 46 -208 78 -15 122 89 72 171 -30 49
-78 64 -118 37z"/>
<path d="M2410 3591 c-26 -50 -2 -111 44 -111 32 0 48 22 48 65 0 20 -6 42
-12 50 -18 22 -67 19 -80 -4z"/>
<path d="M2552 3528 c-17 -17 -15 -83 2 -98 43 -35 99 24 74 78 -15 30 -55 41
-76 20z"/>
<path d="M2297 3451 c-142 -29 -195 -216 -121 -426 53 -151 52 -174 -24 -289
-57 -88 -64 -139 -30 -206 27 -53 73 -80 134 -80 36 0 50 7 93 46 88 79 202
269 258 431 23 66 27 95 27 193 1 102 -2 121 -23 164 -58 118 -195 191 -314
167z"/>
<path d="M2672 3377 c-36 -39 -24 -97 20 -97 25 0 58 39 58 70 0 51 -42 66
-78 27z"/>
<path d="M1696 3328 c-34 -48 -7 -128 43 -128 27 0 51 38 51 81 0 62 -62 93
-94 47z"/>
<path d="M1902 3304 c-80 -55 -66 -204 19 -204 63 0 99 45 99 125 0 77 -62
119 -118 79z"/>
<path d="M1539 3294 c-7 -9 -13 -31 -13 -49 0 -40 19 -65 49 -65 45 0 70 63
45 111 -13 24 -62 26 -81 3z"/>
<path d="M1400 3211 c-9 -24 -9 -35 2 -58 25 -52 88 -39 88 19 0 45 -17 68
-49 68 -22 0 -31 -7 -41 -29z"/>
<path d="M1624 3151 c-58 -15 -137 -66 -170 -110 -92 -120 -85 -316 21 -539
59 -125 143 -249 206 -306 43 -39 57 -46 93 -46 61 0 107 27 134 80 34 69 30
104 -28 200 -71 116 -78 149 -50 225 42 113 52 160 53 250 1 122 -31 192 -104
230 -33 18 -115 26 -155 16z"/>
<path d="M1292 3088 c-31 -31 2 -108 46 -108 44 0 55 50 21 94 -22 28 -48 33
-67 14z"/>
<path d="M3745 1818 c-16 -51 -36 -99 -44 -105 -8 -7 -39 -13 -68 -13 -53 0
-53 0 -47 28 4 15 13 45 21 66 7 22 11 41 9 44 -3 2 -15 -29 -27 -70 -18 -61
-27 -77 -48 -86 -20 -9 -21 -10 -3 -6 27 6 28 -5 7 -91 -8 -33 -14 -71 -14
-85 1 -14 10 18 21 70 10 52 24 100 30 107 6 8 33 13 68 13 l57 0 -19 -82
c-10 -45 -17 -89 -15 -97 1 -9 9 13 16 49 23 120 30 140 51 140 10 0 21 4 24
9 4 5 -3 7 -14 4 -27 -7 -26 13 8 115 16 45 25 82 22 82 -3 0 -19 -42 -35 -92z"/>
<path d="M3325 1826 c-31 -69 -71 -204 -85 -285 -18 -104 2 -96 62 22 77 154
173 287 208 287 17 0 20 -35 6 -85 -25 -83 -97 -168 -127 -150 -6 5 -5 15 6
31 8 13 11 24 6 24 -15 0 -33 -39 -27 -56 16 -42 95 16 133 97 56 121 28 193
-46 118 -43 -42 -78 -96 -150 -224 -50 -90 -61 -105 -61 -80 0 42 43 196 79
283 34 83 32 98 -4 18z"/>
<path d="M1620 1843 c-8 -10 -15 -22 -15 -28 0 -28 -51 -178 -62 -182 -9 -4
-10 -9 -4 -17 7 -8 7 -25 2 -47 -18 -67 -22 -95 -12 -79 5 8 14 41 21 72 l11
57 62 12 c34 7 57 14 51 16 -6 2 -30 0 -53 -6 -25 -5 -43 -5 -47 0 -8 14 46
177 61 181 7 2 10 10 6 21 -6 16 -7 16 -21 0z"/>
<path d="M478 1829 c-58 -43 -138 -199 -138 -269 0 -86 82 -45 208 105 38 45
42 48 42 25 0 -14 -8 -59 -18 -100 -15 -61 -27 -87 -65 -133 -47 -58 -56 -80
-37 -92 15 -10 55 39 70 87 10 29 36 64 77 107 35 35 66 61 68 59 3 -3 0 -19
-6 -36 -6 -17 -9 -41 -7 -54 3 -20 8 -16 30 27 15 28 34 59 42 70 15 19 16 19
27 2 8 -14 18 -17 36 -12 17 4 22 2 18 -5 -4 -6 -4 -22 -1 -36 9 -33 43 -31
94 6 l41 29 3 -27 c5 -42 45 -41 102 3 35 26 46 31 42 18 -23 -77 -13 -101 16
-40 9 18 28 48 44 66 l28 34 11 -38 c5 -21 16 -40 22 -42 7 -3 29 12 50 32
l38 37 -42 -32 -43 -32 -10 27 c-5 14 -10 33 -10 41 0 31 -39 5 -76 -51 -27
-41 -27 -22 0 46 14 35 20 55 13 45 -44 -72 -133 -143 -163 -132 -24 9 -16 35
16 51 32 16 55 49 45 65 -12 19 -31 9 -89 -50 -58 -59 -94 -79 -115 -65 -19
11 -12 35 13 45 26 9 56 46 56 67 0 23 -27 14 -70 -22 -40 -34 -44 -35 -61
-19 -23 21 -41 9 -69 -45 -23 -44 -27 -17 -5 36 8 19 15 39 15 43 0 4 -31 -24
-69 -64 -38 -39 -72 -68 -74 -66 -3 3 4 45 14 94 11 49 19 96 17 103 -2 8 -38
-26 -81 -77 -81 -94 -147 -147 -168 -135 -20 13 -3 93 36 171 42 83 102 144
140 144 21 0 25 -5 25 -30 0 -17 -9 -49 -20 -70 -11 -22 -18 -40 -15 -40 12 0
45 83 45 115 0 33 -2 35 -32 35 -18 0 -45 -10 -60 -21z m422 -157 c0 -12 -49
-56 -55 -50 -7 7 34 58 46 58 5 0 9 -4 9 -8z m111 -35 c-29 -29 -36 -16 -9 18
14 18 23 24 26 16 2 -7 -5 -22 -17 -34z m-495 -215 c-17 -32 -34 -48 -43 -39
-3 3 7 22 22 42 32 42 43 40 21 -3z"/>
<path d="M1778 1843 c12 -2 32 -2 45 0 12 2 2 4 -23 4 -25 0 -35 -2 -22 -4z"/>
<path d="M2040 1818 c-10 -18 -24 -39 -30 -46 -7 -7 -10 -16 -7 -18 3 -3 -2
-26 -10 -50 -16 -47 -40 -64 -90 -64 -21 0 -24 -4 -20 -21 3 -11 3 -27 0 -35
-7 -18 -32 -18 -39 0 -7 18 22 76 38 76 6 0 9 3 6 6 -4 3 -20 -2 -37 -10 -16
-9 -44 -16 -61 -16 -27 0 -30 -2 -24 -25 7 -26 -11 -59 -27 -49 -16 10 -9 60
11 82 12 12 16 22 11 22 -27 0 -56 -79 -38 -104 18 -24 45 -11 55 27 6 22 16
33 35 38 27 7 27 6 22 -25 -9 -45 16 -67 45 -41 11 10 20 28 20 40 0 18 7 24
33 28 17 2 33 3 35 2 2 -1 -2 -23 -8 -47 -13 -52 -10 -100 7 -105 7 -3 33 23
59 56 26 34 49 60 51 58 2 -2 -3 -37 -11 -78 -21 -108 -26 -153 -17 -143 5 5
14 27 21 49 34 108 121 245 157 245 27 0 12 -37 -32 -80 -45 -44 -57 -70 -32
-70 15 0 44 30 69 71 15 24 73 57 83 47 2 -2 -2 -22 -10 -43 -16 -46 -19 -89
-5 -80 5 3 23 33 41 65 29 54 49 75 49 51 0 -15 30 -22 49 -11 16 8 18 5 17
-28 -1 -52 25 -54 76 -5 29 28 39 33 35 18 -16 -54 -18 -75 -10 -75 5 0 16 15
25 33 9 18 28 48 44 66 l28 34 11 -38 c13 -49 25 -52 64 -19 l32 27 -8 -29
c-4 -16 -8 -49 -8 -74 0 -65 19 -58 84 27 37 47 58 68 63 60 4 -7 8 4 8 25 0
46 8 68 26 68 8 0 14 5 14 11 0 21 -45 -18 -50 -43 -7 -33 -111 -178 -129
-178 -19 0 -7 79 27 177 26 74 29 78 62 84 30 6 31 7 8 8 -32 1 -34 10 -11 54
14 27 14 30 1 19 -9 -7 -21 -26 -28 -42 -7 -17 -17 -30 -22 -30 -5 0 -8 -6 -6
-12 1 -7 -4 -34 -11 -61 -10 -34 -24 -56 -52 -78 l-39 -31 -10 27 c-5 14 -10
33 -10 41 0 31 -39 5 -76 -51 -27 -41 -27 -22 0 44 26 63 27 81 2 34 -25 -48
-97 -123 -118 -123 -21 0 -22 7 -2 85 l7 26 -28 -25 c-33 -31 -41 -32 -54 -8
-14 23 -39 7 -68 -44 -27 -47 -30 -31 -5 34 l18 47 -45 -23 -46 -23 -5 27 c-3
15 -11 29 -18 32 -20 6 -83 -65 -125 -143 -36 -65 -38 -67 -32 -31 5 33 35
139 59 211 3 11 -4 -1 -16 -26 -33 -66 -131 -199 -147 -199 -19 0 -7 79 27
177 26 74 29 78 62 84 30 6 31 7 8 8 -32 1 -34 10 -13 51 21 40 9 38 -15 -2z
m170 -246 c0 -12 -39 -46 -45 -41 -6 7 24 49 36 49 5 0 9 -4 9 -8z"/>
<path d="M1683 1833 c9 -2 25 -2 35 0 9 3 1 5 -18 5 -19 0 -27 -2 -17 -5z"/>
<path d="M2123 1773 c15 -2 37 -2 50 0 12 2 0 4 -28 4 -27 0 -38 -2 -22 -4z"/>
<path d="M2913 1773 c15 -2 37 -2 50 0 12 2 0 4 -28 4 -27 0 -38 -2 -22 -4z"/>
<path d="M1943 1753 c9 -2 25 -2 35 0 9 3 1 5 -18 5 -19 0 -27 -2 -17 -5z"/>
<path d="M2733 1753 c9 -2 25 -2 35 0 9 3 1 5 -18 5 -19 0 -27 -2 -17 -5z"/>
<path d="M2964 1615 c-27 -20 -51 -30 -53 -24 -2 6 -8 2 -15 -8 -6 -11 -21
-35 -33 -54 -14 -20 -19 -37 -13 -43 16 -16 40 3 47 35 4 23 22 44 64 77 54
41 65 52 56 52 -2 0 -26 -16 -53 -35z m-88 -113 c-22 -23 -29 -10 -9 18 11 16
18 19 21 11 2 -7 -3 -20 -12 -29z"/>
<path d="M3656 1464 c-4 -14 -5 -29 -2 -31 3 -3 8 7 12 21 3 15 4 29 1 32 -2
3 -8 -7 -11 -22z"/>
<path d="M837 983 c-12 -12 -7 -22 13 -28 27 -9 26 -29 -1 -22 -16 4 -19 3
-11 -5 12 -12 42 -4 42 11 0 6 -9 15 -20 21 -11 6 -18 15 -15 21 7 10 2 12 -8
2z"/>
<path d="M913 955 c0 -22 2 -30 4 -17 2 12 2 30 0 40 -3 9 -5 -1 -4 -23z"/>
<path d="M951 953 c1 -37 2 -37 8 -8 l7 30 13 -24 14 -24 12 24 13 24 5 -30
c4 -27 4 -26 6 8 1 41 -11 49 -26 15 l-10 -23 -12 23 c-18 33 -31 27 -30 -15z"/>
<path d="M1061 953 c1 -21 3 -31 6 -22 2 10 13 19 24 22 19 5 27 37 9 37 -5 0
-7 -7 -4 -15 4 -10 0 -15 -11 -15 -11 0 -15 5 -11 15 3 8 1 15 -4 15 -6 0 -9
-17 -9 -37z"/>
<path d="M1142 958 c-2 -35 0 -38 26 -37 22 1 23 2 5 6 -16 3 -23 13 -26 36
-4 31 -4 31 -5 -5z"/>
<path d="M1222 958 c-2 -34 1 -38 21 -37 15 1 17 3 5 6 -10 2 -18 17 -21 36
-4 31 -4 31 -5 -5z"/>
<path d="M1342 955 c0 -22 2 -32 5 -22 2 9 10 17 16 17 9 0 9 2 1 8 -6 4 -14
14 -17 22 -3 8 -5 -3 -5 -25z"/>
<path d="M1414 975 c-14 -35 24 -68 52 -44 18 15 15 51 -6 56 -12 4 -12 3 -2
-5 20 -14 10 -47 -13 -47 -23 0 -33 34 -13 46 10 7 10 9 0 9 -7 0 -15 -7 -18
-15z"/>
<path d="M1517 983 c-4 -3 -7 -17 -7 -29 0 -25 35 -43 51 -27 6 6 1 9 -13 9
-26 -1 -38 32 -16 45 7 5 8 9 2 9 -6 0 -14 -3 -17 -7z"/>
<path d="M1562 970 c7 -10 14 -18 15 -16 6 6 -9 36 -18 36 -5 0 -4 -9 3 -20z"/>
<path d="M1628 955 c2 -19 6 -35 8 -35 2 0 4 16 4 35 0 19 -4 35 -8 35 -4 0
-6 -16 -4 -35z"/>
<path d="M1690 977 c0 -8 12 -19 28 -26 26 -11 26 -11 7 5 -11 8 -19 20 -17
25 1 5 -2 9 -8 9 -5 0 -10 -6 -10 -13z"/>
<path d="M1788 955 c2 -19 6 -35 8 -35 2 0 4 16 4 35 0 19 -4 35 -8 35 -4 0
-6 -16 -4 -35z"/>
<path d="M1852 958 c-2 -34 1 -38 21 -37 15 1 17 3 5 6 -10 2 -18 17 -21 36
-4 31 -4 31 -5 -5z"/>
<path d="M1921 953 c1 -21 3 -31 6 -22 2 10 13 19 24 22 19 5 27 37 9 37 -5 0
-7 -7 -4 -15 4 -10 0 -15 -11 -15 -11 0 -15 5 -11 15 3 8 1 15 -4 15 -6 0 -9
-17 -9 -37z"/>
<path d="M2005 981 c-3 -5 -2 -12 3 -15 5 -3 9 1 9 9 0 17 -3 19 -12 6z"/>
<path d="M2143 955 c0 -22 2 -30 4 -17 2 12 2 30 0 40 -3 9 -5 -1 -4 -23z"/>
<path d="M2204 975 c-14 -35 24 -68 52 -44 18 15 15 51 -6 56 -12 4 -12 3 -2
-5 20 -14 10 -47 -13 -47 -23 0 -33 34 -13 46 10 7 10 9 0 9 -7 0 -15 -7 -18
-15z"/>
<path d="M2345 970 c-9 -27 11 -50 41 -48 28 3 34 38 7 38 -15 0 -16 -2 -3
-10 12 -8 12 -10 -3 -16 -27 -10 -45 12 -29 36 7 11 8 20 3 20 -5 0 -13 -9
-16 -20z"/>
<path d="M2441 953 c1 -21 3 -30 6 -20 5 21 12 22 27 2 9 -12 11 -8 13 20 1
19 -2 35 -7 35 -5 0 -7 -7 -4 -15 4 -10 0 -15 -11 -15 -11 0 -15 5 -11 15 3 8
1 15 -4 15 -6 0 -9 -17 -9 -37z"/>
<path d="M2520 955 c0 -32 2 -35 28 -34 23 2 23 2 5 6 -18 3 -22 10 -19 34 2
16 -1 29 -5 29 -5 0 -9 -16 -9 -35z"/>
<path d="M2601 958 c-1 -35 1 -38 27 -37 24 2 25 2 4 6 -13 3 -22 10 -19 16 2
7 1 21 -4 32 -6 15 -8 11 -8 -17z"/>
<path d="M2681 955 c2 -33 3 -35 6 -11 l5 29 19 -29 c10 -16 19 -23 19 -16 0
7 -11 25 -25 40 l-25 27 1 -40z"/>
<path d="M2812 958 c-2 -34 1 -38 21 -37 15 1 17 3 5 6 -10 2 -18 17 -21 36
-4 31 -4 31 -5 -5z"/>
<path d="M2893 955 c0 -22 2 -30 4 -17 2 12 2 30 0 40 -3 9 -5 -1 -4 -23z"/>
<path d="M2969 963 c-8 -22 -12 -24 -19 -13 -6 8 -10 11 -10 5 0 -18 17 -38
23 -28 12 18 27 63 22 63 -3 0 -10 -12 -16 -27z"/>
<path d="M3023 955 c0 -22 2 -30 4 -17 2 12 2 30 0 40 -3 9 -5 -1 -4 -23z"/>
<path d="M3061 953 c1 -37 2 -37 8 -8 l6 29 22 -29 22 -30 0 40 c-1 33 -2 36
-8 15 l-7 -25 -12 23 c-19 33 -32 27 -31 -15z"/>
<path d="M2036 946 c6 -16 4 -18 -14 -14 -12 4 -20 2 -16 -3 7 -12 31 -11 40
2 3 6 1 16 -5 22 -9 9 -10 7 -5 -7z"/>
<path d="M3196 952 c6 -4 14 -14 17 -22 4 -10 6 -8 6 8 1 15 -5 22 -16 22 -11
0 -14 -3 -7 -8z"/>
<path d="M3163 940 c2 -8 12 -16 23 -17 13 -2 15 -1 4 4 -8 3 -19 11 -23 17
-6 7 -7 6 -4 -4z"/>
<path d="M1698 928 c5 -5 16 -8 23 -6 8 3 3 7 -10 11 -17 4 -21 3 -13 -5z"/>
</g>
</svg>
